<?xml version="1.0" encoding="UTF-8"?>
<svg id="Camada_2" data-name="Camada 2" xmlns="http://www.w3.org/2000/svg" viewBox="0 0 271.49 268.38">
  <g id="Camada_1-2" data-name="Camada 1">
    <g>
      <g>
        <path d="M151.42,113.07c-6.15,6.04-12.14,12.23-18.81,19.01V47.81c.27-.08,.54-.15,.79-.23,.43,1.14,.92,2.25,1.29,3.41,5.93,19.12,11.83,38.27,17.85,57.37,.63,2.01,.39,3.22-1.12,4.7Z"/>
        <path d="M216.83,133.25c-1.36,.48-2.7,1.02-4.09,1.45-18.68,5.81-37.37,11.64-56.1,17.32-2.5,.76-3.68,2-4.42,4.43-5.62,18.49-11.39,36.94-17.12,55.4-.48,1.57-1.04,3.1-1.56,4.66-.36-.09-.74-.18-1.11-.27v-83.71c-1.23,.97-1.97,1.45-2.6,2.06-5.54,5.51-11,11.09-16.63,16.48-.91,.88-2.8,1.6-3.9,1.28-19.89-6.01-39.72-12.18-59.56-18.33-.64-.2-1.22-.59-1.74-1.58H216.58c.09,.27,.16,.54,.25,.8Z"/>
      </g>
      <path d="M271.49,145.02c-15.7,15.11-31.4,30.23-47.12,45.34l-79.24,78.02c-.07-.56-.14-1.11-.19-1.67-.15-1.4-.27-2.8-.36-4.2-.18-2.51-.26-5.04-.26-7.6,0-61.82,50.11-111.93,111.93-111.93,5.15,0,10.22,.35,15.19,1.03l-1.24,1.23c.43-.07,.86-.15,1.29-.22Z"/>
      <path d="M0,145.02c15.7,15.11,31.4,30.23,47.12,45.34l79.24,78.02c.07-.56,.14-1.11,.19-1.67,.15-1.4,.27-2.8,.36-4.2,.18-2.51,.26-5.04,.26-7.6,0-61.82-50.11-111.93-111.93-111.93-5.15,0-10.22,.35-15.19,1.03l1.24,1.23c-.43-.07-.86-.15-1.29-.22Z"/>
      <path d="M0,122.64c15.79-15.02,31.58-30.05,47.37-45.07L127.06,0c.07,.56,.13,1.11,.18,1.67,.14,1.4,.26,2.8,.33,4.21,.16,2.51,.23,5.05,.22,7.6-.35,61.82-50.75,111.64-112.57,111.29-5.15-.03-10.21-.41-15.18-1.12l1.25-1.22c-.43,.07-.86,.14-1.29,.21Z"/>
      <path d="M271.49,124.08c-15.61-15.2-31.23-30.41-46.85-45.61L145.85,0c-.08,.56-.14,1.11-.2,1.67-.16,1.4-.29,2.79-.38,4.2-.19,2.51-.29,5.04-.31,7.6-.35,61.82,49.47,112.21,111.29,112.57,5.15,.03,10.22-.29,15.19-.94l-1.23-1.24c.43,.08,.86,.15,1.29,.23Z"/>
    </g>
  </g>
</svg>