<?xml version="1.0" encoding="UTF-8"?>
<svg id="Camada_2" data-name="Camada 2" xmlns="http://www.w3.org/2000/svg" viewBox="0 0 650.93 233.05">
  <defs>
    <style>
      .cls-1 {
        fill: #ede9e6;
      }
    </style>
  </defs>
  <g id="Camada_1-2" data-name="Camada 1">
    <g>
      <path class="cls-1" d="M26.3,164.94L55.52,55.68c1.58-5.84,1.8-6.75,1.8-8.77,0-6.52-2.7-9.44-19.79-9.44l2.47-8.99H104.98l-2.47,8.99c-17.76,.9-20.01,2.47-25.18,21.8l-28.55,105.67c-.9,3.37-1.57,7.19-1.57,8.99,0,4.72,4.05,7.65,20.01,7.65l-2.47,8.99H0l2.47-8.99c15.52-.68,20.23-2.93,23.83-16.64Z"/>
      <path class="cls-1" d="M211.9,154.84v-60.6c0-27.24-16.81-44.59-55.26-44.59s-55.26,17.35-55.26,44.59h21.36c1.59-19.5,12.81-28.58,34.17-28.58,22.95,0,32.83,10.94,32.83,28.58,0,10.13-5.34,14.15-24.02,15.74l-25.36,2.13c-33.64,2.95-46.46,18.7-46.46,38.98,0,25.63,17.63,41.65,48.87,41.65,24.29,0,40.57-9.61,48.04-28.83,0,14.69,1.61,20.29,5.88,26.16h19.5c-2.68-4.54-4.28-16.55-4.28-35.24Zm-22.16-24.83c0,25.63-13.88,47.26-41.11,47.26-22.95,0-32.56-11.75-32.56-27.49,0-12.82,8.81-22.16,30.7-23.77l18.96-1.61c12.28-1.07,20.82-3.73,24.02-8v13.61Z"/>
      <path class="cls-1" d="M302.36,49.66c-23.22,0-37.37,10.94-45.11,28.02v-25.36h-21.09V190.07h22.16V113.19c0-27.76,14.94-45.65,37.91-45.65s30.43,12.03,30.43,34.98v87.56h22.16V99.04c0-33.37-14.94-49.38-46.45-49.38Z"/>
      <path class="cls-1" d="M475.03,0V78.49c-7.74-19.22-24.02-28.83-47.51-28.83-37.12,0-59.81,26.43-59.81,71.54s22.69,71.56,59.81,71.56c24.56,0,40.84-10.67,48.58-30.17v27.49h21.09V0h-22.16Zm-42.71,175.67c-25.09,0-42.44-16.82-42.44-54.47s17.35-54.47,42.44-54.47,42.71,16.82,42.71,54.47-17.34,54.47-42.71,54.47Z"/>
      <path class="cls-1" d="M591.11,49.67c-1.37,0-2.74,.02-4.09,.09-7.71,.38-14.52,1.87-20.41,4.43-1.57,.67-3.06,1.42-4.52,2.25-5.37,3.06-9.87,7.13-13.46,12.14-.9,1.21-1.71,2.49-2.49,3.8-1.35,2.31-2.54,4.79-3.6,7.44v-23.38h-20.3l-.81,2.9V219.52c-.16,.29-.34,.56-.52,.81-.79,1.1-1.78,1.87-3.12,2.43h-12.97v10.3h52.98v-10.3h-10.27c-1.84-.58-3.15-1.28-3.93-2.29v-56.53c.29,.72,.61,1.46,.95,2.18,1.35,3.01,2.94,5.78,4.79,8.27,.97,1.37,2.02,2.63,3.12,3.82,.07,.07,.14,.14,.18,.2,1.75,1.87,3.62,3.55,5.66,5.04,.29,.2,.56,.4,.86,.58,.38,.27,.76,.54,1.15,.79,3.57,2.31,7.55,4.14,11.94,5.42,.47,.13,.94,.27,1.42,.38,5.28,1.44,11.13,2.13,17.47,2.13,37.11,0,59.82-26.41,59.82-71.55s-22.7-71.53-59.82-71.53Zm7.26,124.47c-3.84,1.03-7.96,1.53-12.32,1.53-2.38,0-4.68-.13-6.9-.45-5.13-.7-9.85-2.2-14.05-4.59-1.98-1.1-3.87-2.43-5.6-3.91-.41-.36-.81-.72-1.21-1.08-.61-.58-1.19-1.19-1.78-1.82-1.12-1.21-2.16-2.52-3.12-3.89-1.69-2.38-3.17-5.06-4.43-8-.58-1.35-1.12-2.74-1.62-4.18-1.15-3.48-2.05-7.28-2.7-11.46-.67-4.32-1.01-9.04-1.06-14.16v-.92c0-4.23,.23-8.18,.65-11.89,.54-4.7,1.39-9.01,2.58-12.88,0-.04,.02-.11,.05-.16,1.48-4.97,3.48-9.26,5.93-12.93,1.44-2.18,3.01-4.14,4.77-5.84,1.06-1.06,2.14-2,3.28-2.9,.11-.07,.23-.16,.32-.22,3.08-2.36,6.5-4.14,10.23-5.4,3.35-1.12,6.99-1.82,10.81-2.09,.09,0,.16-.02,.25-.02,1.17-.09,2.38-.14,3.6-.14,25.36,0,42.71,16.82,42.71,54.47,0,31.18-11.89,48.06-30.39,52.94Z"/>
    </g>
  </g>
</svg>